<?xml version="1.0" encoding="UTF-8"?><svg id="a" xmlns="http://www.w3.org/2000/svg" xmlns:xlink="http://www.w3.org/1999/xlink" viewBox="0 0 144 144"><defs><style>.c{fill:#fff;}.d{fill:url(#b);}.e{fill:#1d71b8;}.f{fill:#1d1d1b;}</style><radialGradient id="b" cx="58.61" cy="59.11" fx="58.61" fy="59.11" r="53.13" gradientTransform="translate(45.36 -38.34) rotate(40.08) scale(1.2 1.14)" gradientUnits="userSpaceOnUse"><stop offset=".05" stop-color="#fff"/><stop offset=".08" stop-color="#fad5d6"/><stop offset=".12" stop-color="#f4a1a3"/><stop offset=".16" stop-color="#ee7576"/><stop offset=".2" stop-color="#ea5052"/><stop offset=".24" stop-color="#e73436"/><stop offset=".28" stop-color="#e42022"/><stop offset=".32" stop-color="#e31416"/><stop offset=".36" stop-color="#e31013"/><stop offset=".41" stop-color="#d90f11"/><stop offset=".49" stop-color="#be0e0e"/><stop offset=".59" stop-color="#920b09"/><stop offset=".71" stop-color="#570803"/><stop offset=".76" stop-color="#3b0700"/><stop offset="1" stop-color="#250000"/></radialGradient></defs><g><polygon class="f" points="47.41 79.43 30.5 79.43 27.71 83.98 46.01 83.98 47.41 79.43"/><polygon class="f" points="64.31 83.98 46.01 83.98 44.36 89.36 64.31 89.36 64.31 83.98"/><polygon class="f" points="49.64 72.12 34.98 72.12 32.9 75.51 48.61 75.51 49.64 72.12"/><polygon class="f" points="64.31 79.43 64.31 75.51 48.61 75.51 47.41 79.43 64.31 79.43"/><polygon class="f" points="-3.31 79.43 -8.9 83.98 9.41 83.98 13.59 79.43 -3.31 79.43"/><polygon class="f" points="27.71 83.98 9.41 83.98 4.46 89.36 24.41 89.36 27.71 83.98"/><polygon class="f" points="5.64 72.12 1.48 75.51 17.19 75.51 20.31 72.12 5.64 72.12"/><polygon class="f" points="32.9 75.51 17.19 75.51 13.59 79.43 30.5 79.43 32.9 75.51"/><polygon class="f" points="98.13 79.43 100.92 83.98 119.22 83.98 115.03 79.43 98.13 79.43"/><polygon class="f" points="144.11 89.36 137.52 83.98 119.22 83.98 124.16 89.36 144.11 89.36"/><polygon class="f" points="108.32 72.12 93.65 72.12 95.73 75.51 111.44 75.51 108.32 72.12"/><polygon class="f" points="131.94 79.43 127.15 75.51 111.44 75.51 115.03 79.43 131.94 79.43"/><polygon class="f" points="82.62 83.98 81.22 79.43 64.31 79.43 64.31 83.98 82.62 83.98"/><polygon class="f" points="84.26 89.36 104.21 89.36 100.92 83.98 82.62 83.98 84.26 89.36"/><polygon class="f" points="78.98 72.12 64.31 72.12 64.31 75.51 80.02 75.51 78.98 72.12"/><polygon class="f" points="98.13 79.43 95.73 75.51 80.02 75.51 81.22 79.43 98.13 79.43"/><polygon class="f" points="15.66 103.66 9.66 113.45 36.99 113.45 39.98 103.66 15.66 103.66"/><polygon class="f" points="33.14 126 64.31 126 64.31 113.45 36.99 113.45 33.14 126"/><polygon class="f" points="44.36 89.36 24.41 89.36 20.47 95.8 42.39 95.8 44.36 89.36"/><polygon class="f" points="42.39 95.8 39.98 103.66 64.31 103.66 64.31 95.8 42.39 95.8"/><polygon class="f" points="-29.2 126 1.97 126 9.66 113.45 -17.67 113.45 -29.2 126"/><polygon class="f" points="-15.49 89.36 -23.38 95.8 -1.45 95.8 4.46 89.36 -15.49 89.36"/><polygon class="f" points="20.47 95.8 -1.45 95.8 -8.67 103.66 15.66 103.66 20.47 95.8"/><polygon class="f" points="118.97 113.45 146.3 113.45 137.3 103.66 112.97 103.66 118.97 113.45"/><polygon class="f" points="108.16 95.8 130.08 95.8 124.16 89.36 104.21 89.36 108.16 95.8"/><polygon class="f" points="161.63 103.66 152.01 95.8 130.08 95.8 137.3 103.66 161.63 103.66"/><polygon class="f" points="64.31 103.66 64.31 113.45 91.64 113.45 88.64 103.66 64.31 103.66"/><polygon class="f" points="95.49 126 126.66 126 118.97 113.45 91.64 113.45 95.49 126"/><polygon class="f" points="64.31 95.8 86.24 95.8 84.26 89.36 64.31 89.36 64.31 95.8"/><polygon class="f" points="88.64 103.66 112.97 103.66 108.16 95.8 86.24 95.8 88.64 103.66"/></g><rect class="e" y="0" width="144" height="72.05"/><circle class="d" cx="72" cy="72.05" r="40.46"/><path class="c" d="M-9-9V153H153V-9H-9ZM132.75,132.75H11.25V11.25h121.5v121.5Z"/></svg>