<svg xmlns="http://www.w3.org/2000/svg" xmlns:xlink="http://www.w3.org/1999/xlink" viewBox="0 0 57.048 67.048" fill="#fff" fill-rule="evenodd" stroke="#000" stroke-linecap="round" stroke-linejoin="round"><use xlink:href="#B" x="1.024" y="1.024"/><defs><linearGradient id="A" x1="0.03%" y1="50.00%" x2="99.97%" y2="50.00%"><stop offset="0%" stop-color="#f1562b"/><stop offset="30%" stop-color="#f1542b"/><stop offset="41%" stop-color="#f04d2a"/><stop offset="49%" stop-color="#ef4229"/><stop offset="50%" stop-color="#ef4029"/><stop offset="56%" stop-color="#e83e28"/><stop offset="67%" stop-color="#e13c26"/><stop offset="100%" stop-color="#df3c26"/></linearGradient></defs><symbol id="B" overflow="visible"><g stroke="none" fill-rule="nonzero"><path d="M54.572 20.707l-1.974-5.36 1.372-3.076a1.06 1.06 0 0 0-.215-1.171l-3.732-3.773a6.02 6.02 0 0 0-6.28-1.458l-1.024.362-5.7-6.177L27.286 0l-9.733.076-5.694 6.226-1.014-.358a6.04 6.04 0 0 0-6.321 1.471L.703 11.259a.84.84 0 0 0-.17.934l1.434 3.195L0 20.744l7.06 26.845c.668 2.536 2.202 4.758 4.338 6.28l13.962 9.463c1.129.903 2.734.903 3.863 0l13.954-9.477c2.134-1.522 3.687-3.744 4.332-6.28l5.759-22.022z" fill="url(#A)"/><path d="M28.879 39.674c-.369-.165-.75-.303-1.139-.413h-.686a8.25 8.25 0 0 0-1.139.413l-1.727.718-1.95.897-3.176 1.655c-.235.076-.4.288-.417.535s.118.48.34.586l2.757 1.936 1.695 1.346.776.668 1.624 1.422.736.65a1.27 1.27 0 0 0 1.62 0l3.174-2.773 1.7-1.346 2.758-1.974a.6.6 0 0 0-.085-1.117l-3.17-1.6-1.96-.897zm19.555-17.77l.1-.287c.005-.384-.019-.768-.072-1.148-.267-.68-.6-1.326-1.023-1.93l-1.794-2.633-1.278-1.736-2.404-3c-.22-.293-.458-.572-.713-.834h-.05l-1.068.197-5.284 1.018c-.535.025-1.07-.053-1.574-.23l-2.902-.937-2.077-.574c-.61-.065-1.224-.065-1.834 0l-2.077.58-2.902.942a4.21 4.21 0 0 1-1.574.23l-5.278-1-1.068-.197h-.05c-.256.262-.494.54-.713.834l-2.4 3-1.278 1.736-1.794 2.633-.848 1.413c-.154.543-.235 1.104-.242 1.67l.1.287c.043.184.1.366.166.543l1.417 1.628 6.28 6.674a1.79 1.79 0 0 1 .318 1.794l-1.056 2.424a3.16 3.16 0 0 0-.049 2.005l.206.565a5.45 5.45 0 0 0 1.673 2.346l.987.803c.52.376 1.2.457 1.794.215l3.508-1.673c.645-.322 1.247-.721 1.794-1.19l2.808-2.534a1.12 1.12 0 0 0 .37-.795 1.13 1.13 0 0 0-.312-.82l-6.338-4.27a1.23 1.23 0 0 1-.386-1.556l2.458-4.62a2.4 2.4 0 0 0 .121-1.834 2.8 2.8 0 0 0-1.395-1.265l-7.706-2.9c-.556-.2-.525-.45.063-.484l4.526-.45c.71-.045 1.422.019 2.113.188l3.938 1.1c.578.174.94.75.843 1.346l-1.547 8.45c-.103.468-.129.95-.076 1.426.063.202.592.45 1.17.592l2.4.5a5.83 5.83 0 0 0 2.108 0l2.157-.5c.58-.13 1.103-.404 1.17-.606a4.38 4.38 0 0 0-.08-1.426l-1.556-8.45a1.21 1.21 0 0 1 .843-1.346l3.938-1.103c.691-.17 1.403-.233 2.113-.188l4.526.422c.592.054.62.274.067.484l-7.7 2.92a2.76 2.76 0 0 0-1.395 1.265 2.41 2.41 0 0 0 .12 1.834l2.462 4.62a1.23 1.23 0 0 1-.386 1.556l-6.333 4.28a1.13 1.13 0 0 0 .058 1.615l2.812 2.534a8.89 8.89 0 0 0 1.794 1.184l3.508 1.67c.596.24 1.274.158 1.794-.22l.987-.807a5.44 5.44 0 0 0 1.673-2.35l.206-.565a3.16 3.16 0 0 0-.049-2.005l-1.032-2.436a1.8 1.8 0 0 1 .318-1.794l6.28-6.683 1.413-1.628a4.36 4.36 0 0 0 .193-.53z"/></g></symbol></svg>